<svg width="201" height="48" xmlns="http://www.w3.org/2000/svg"><g fill-rule="nonzero" fill="none"><path fill="#FFF" d="M0 0h45.21v44.93H0z"/><path fill="#DC004E" d="M14.29 27.98L45.21.14V0H0v12.11z"/><path fill="#FFF" d="M0 .18h45.21v44.94H0z"/><path fill="#C4162D" d="M14.29 28.16L45.21.32V.18H0v12.11z"/><path d="M0 45.38h45.21V13.99c0-2.65-1.23-1.9-1.86-1.46L19.79 28.85s-4.88 3.38-9.94.27l-6.41-3.93a12.49 12.49 0 00-1.64-.8c-.5-.2-1.8-1-1.8 1.27v19.72z" fill="#654028"/><path d="M188.93 42.52h4.68v-1.06h-1.69l2.59-3.33 2.63 3.33h-1.69v1.06h4.75v-1.11h-1.49l-3.34-4.1 3.17-3.91h1.52v-1.11h-4.76v1.08h1.81l-2.46 3.09-2.44-3.09H194v-1.08h-4.9v1.11h1.55l3.11 3.91-3.35 4.1h-1.5l.02 1.11zm-6.23-9.39c2.15 0 3 1.79 3.07 3.55h-6.37c.19-2.08 1.35-3.55 3.3-3.55m.34 9.66a7.06 7.06 0 003.57-1v-1.18a6.52 6.52 0 01-3.45 1c-2.34 0-3.69-1.5-3.79-3.91h7.7c.04-.22.057-.446.05-.67 0-2.35-1.23-5-4.42-5-2.89 0-4.73 2.2-4.73 5.43 0 3.23 1.79 5.34 5.07 5.34m-13.44-1.1c-2.3 0-3.29-2-3.29-4.25 0-2.39 1.16-4.22 3.48-4.22a4.29 4.29 0 013.09 1.4v5.43a4.6 4.6 0 01-3.28 1.64m-.27 1.14a4.73 4.73 0 003.67-1.79v1.47h3.24v-1.13h-1.94V25.45h-3.62v1.16h2.25v6.81a4.62 4.62 0 00-3.36-1.4c-3 0-4.63 2.39-4.63 5.38 0 2.99 1.57 5.39 4.44 5.39m-18.47-.27h5.22v-1.13h-1.91v-6.4a5.91 5.91 0 013.72-1.79c1.47 0 2 .94 2 2.32v5.87h-1.9v1.13h5.21v-1.13h-1.91v-6c0-2.2-1.15-3.33-3-3.33a6.12 6.12 0 00-4.1 1.86v-1.63h-3.29v1.15h1.91v7.95h-1.91l-.04 1.13zm-8.2 0h6.13v-1.21h-2.34V29.03h2.34v-1.21h-6.13v1.21H145v12.28h-2.34l.05 1.21zM129.53 45.59c-1.55 0-2.75-.39-2.75-1.45a1.79 1.79 0 01.67-1.33c2.08.36 4.83.12 4.83 1.38 0 .29-.15 1.4-2.75 1.4m0-11.86a2.12 2.12 0 11-2 2.1 1.87 1.87 0 012-2.1m-.1 13.86c4.42 0 5.53-1.88 5.53-3.57 0-4.32-7.39-2.47-7.39-4a.6.6 0 01.19-.41 5.57 5.57 0 001.77.24c3 0 4.51-1.81 4.51-4a4.47 4.47 0 00-.36-1.71l1.83.1v-2.15h-4.15a6.08 6.08 0 00-1.83-.26c-3 0-4.52 1.81-4.52 4a3.82 3.82 0 001.48 3.14 2.59 2.59 0 00-1.28 2c-.012.514.24.997.67 1.28a2.65 2.65 0 00-1.47 2.36c0 1.6 1.28 3 5 3m-19.07-5.07h5.91V40.4h-1.59v-5.22a5.05 5.05 0 012.9-1.2c1 0 1.28.48 1.28 1.35v5.07h-1.6v2.12h5.92V40.4h-1.59v-5.34a2.88 2.88 0 00-3.12-3.23 6.14 6.14 0 00-3.86 1.57v-1.31h-4.25v2.13H112v6.18h-1.59l-.07 2.14zM103.6 28.7a1.89 1.89 0 103.78.02 1.89 1.89 0 00-3.78-.02m-.94 13.81h5.91V40.4H107v-8.31h-4.32v2.13h1.59v6.18h-1.59l-.02 2.11zm-14.51 0h5.92V40.4h-1.6v-5.22a5.08 5.08 0 012.9-1.2c1 0 1.28.48 1.28 1.35v5.07h-1.59v2.12H101V40.4h-1.59v-5.34a2.88 2.88 0 00-3.12-3.23 6.18 6.18 0 00-3.86 1.57v-1.31h-4.25v2.13h1.6v6.18h-1.6l-.03 2.11zM81.4 28.7a1.88 1.88 0 101.88-1.88 1.89 1.89 0 00-1.88 1.88m-1 13.81h5.92V40.4h-1.6v-8.31h-4.27v2.13h1.6v6.18h-1.6l-.05 2.11zm-22.37 0h6.18V40.3h-1.76l.33-9.85L67 41.24h2.32l4.22-10.79.34 9.85h-1.8v2.22h6.18V40.3h-1.81l-.37-10.26h1.84v-2.22h-6.16l-3.59 9.78-3.6-9.78h-6.15v2.22h1.83l-.36 10.26h-1.81l-.05 2.21zM180.63 8.7c1.59 0 2.07 1.23 2.17 2.46h-4.61c.19-1.3.87-2.46 2.44-2.46m.31 9a7.64 7.64 0 003.77-.94v-2.1a7 7 0 01-3.36 1 2.8 2.8 0 01-3.14-2.54h7c.067-.383.1-.771.1-1.16 0-2.87-1.5-5.19-4.78-5.19-3.28 0-5.12 2.32-5.12 5.48 0 3.16 1.86 5.45 5.53 5.45m-13.08-.26h5.91v-2.16h-1.59V.34h-4.32v2.15h1.59v12.79h-1.59v2.16zm-8.18-1.79c-.334 0-.668-.016-1-.05V9.32a4.48 4.48 0 012.12-.58c1.91 0 2.54 1.54 2.54 3.26 0 2.39-1.21 3.62-3.69 3.62m.12 2c3.95 0 6.34-1.83 6.34-5.7 0-3.25-1.69-5.26-4.63-5.26a5.54 5.54 0 00-2.8.73V.29h-4.32v2.12H156v14.87a20.73 20.73 0 003.82.39M148.55 3.6a1.88 1.88 0 100-.02m-.94 13.81h5.91v-2.11h-1.59v-8.3h-4.32V9.1h1.59v6.18h-1.59v2.11zm-6.33.26c3.5 0 4.32-1.64 4.32-3.19 0-4-5.74-2.82-5.74-4.82 0-.51.38-1 1.62-1a8.86 8.86 0 011.47.14v1.43h2.19V7.29a13.55 13.55 0 00-3.69-.58c-2.85 0-4.2 1.33-4.2 3.24 0 3.91 5.72 2.87 5.72 4.73 0 .53-.48 1-1.71 1a9 9 0 01-1.93-.24v-1.3h-2.18v2.94a16.08 16.08 0 004.13.58m-18.68-.26h5.91v-2.12h-1.59v-5.21a5.07 5.07 0 012.9-1.21c1 0 1.28.48 1.28 1.35v5.07h-1.6v2.13h5.92v-2.13h-1.6V9.95c0-2.15-1.2-3.24-3.11-3.24a6.14 6.14 0 00-3.86 1.57v-1.3h-4.25V9.1h1.59v6.18h-1.59v2.12zm-7.48-1.79c-1.86 0-2.68-1.52-2.68-3.43 0-1.91.82-3.43 2.68-3.43 1.86 0 2.68 1.52 2.68 3.43 0 1.91-.83 3.43-2.68 3.43m0 2a5.1 5.1 0 005.5-5.48 5.51 5.51 0 00-11 0 5.1 5.1 0 005.5 5.57M102.3 8.79c1.88 0 2.63 1.59 2.63 3.43 0 2.05-.92 3.38-2.82 3.38a3.09 3.09 0 01-2-.66V9.7a3.19 3.19 0 012.22-.89m-6.54 13.42H102v-2.17h-1.9v-3.21a4.63 4.63 0 002.75.82c3 0 4.9-2.2 4.9-5.55 0-3.35-1.83-5.42-4.65-5.42a4.17 4.17 0 00-3.22 1.4V6.98h-4.12V9.1h1.59v11h-1.59l.03 2.13zm-6-4.54c3.5 0 4.32-1.64 4.32-3.19 0-4-5.75-2.82-5.75-4.82 0-.51.39-1 1.62-1a8.76 8.76 0 011.47.14v1.43h2.2V7.29a13.62 13.62 0 00-3.69-.58c-2.85 0-4.2 1.33-4.2 3.24 0 3.91 5.72 2.87 5.72 4.73 0 .53-.49 1-1.72 1a9 9 0 01-1.93-.24v-1.3h-2.21v2.94a16.08 16.08 0 004.13.58M79 8.7c1.59 0 2.07 1.23 2.17 2.46h-4.65c.19-1.3.87-2.46 2.44-2.46m.31 9a7.64 7.64 0 003.73-1v-2.1a7 7 0 01-3.36 1 2.8 2.8 0 01-3.14-2.54h7c.067-.383.1-.771.1-1.16 0-2.87-1.5-5.19-4.78-5.19-3.28 0-5.12 2.32-5.12 5.48 0 3.16 1.9 5.51 5.57 5.51M62.9 9.85V4.93h2.37c2.32 0 3.11 1.18 3.11 2.46s-.77 2.46-3.11 2.46H62.9zm-4.77 7.56h6.75v-2.23h-2v-3.16h2.64l3 5.39h3.72v-2.23h-1.78l-2.22-3.91a4 4 0 003-3.93c0-2.25-1.64-4.63-6-4.63h-7.11v2.22h2v10.25h-2v2.23z" fill="#FFF"/></g></svg>